<?xml version="1.0" standalone="no"?>
<!DOCTYPE svg PUBLIC "-//W3C//DTD SVG 20010904//EN"
 "http://www.w3.org/TR/2001/REC-SVG-20010904/DTD/svg10.dtd">
<svg version="1.0" xmlns="http://www.w3.org/2000/svg"
 width="512.000000pt" height="512.000000pt" viewBox="0 0 512.000000 512.000000"
 preserveAspectRatio="xMidYMid meet">
<metadata>
Created by potrace 1.11, written by Peter Selinger 2001-2013
</metadata>
<g transform="translate(0.000000,512.000000) scale(0.100000,-0.100000)"
fill="#000000" stroke="none">
<path d="M3949 4235 c-5 -5 -234 -51 -299 -60 -199 -27 -385 -36 -800 -40
-555 -6 -950 -13 -1010 -18 -271 -25 -341 -48 -438 -145 -77 -77 -158 -235
-178 -346 -5 -28 -4 -29 13 -15 32 28 43 32 36 13 -5 -13 -3 -15 8 -10 8 4 6
1 -3 -7 -10 -8 -18 -25 -18 -38 l1 -24 17 21 c9 11 45 38 78 60 39 25 59 45
57 54 -3 11 -2 12 4 2 7 -9 20 -7 59 12 27 13 59 26 72 30 12 4 22 11 22 16 0
4 6 8 13 7 33 -1 58 4 53 11 -2 4 11 7 30 7 19 -1 34 3 34 8 0 6 3 7 7 4 3 -4
13 -1 21 6 13 10 14 9 7 -2 -6 -11 -4 -13 11 -6 10 4 29 8 42 8 13 1 22 7 22
17 0 10 3 11 8 4 9 -14 84 -13 94 1 5 6 8 5 8 -4 0 -11 3 -11 15 -1 12 10 15
10 15 0 0 -10 4 -10 16 1 14 11 15 8 9 -31 -4 -25 -8 -47 -10 -50 -2 -3 -6
-25 -10 -50 -4 -25 -8 -47 -10 -50 -2 -3 -6 -26 -10 -50 -4 -25 -13 -72 -20
-105 -8 -33 -16 -73 -19 -90 -14 -82 -18 -103 -27 -145 -6 -25 -13 -56 -16
-70 -7 -42 -32 -163 -37 -190 -19 -89 -44 -212 -52 -260 -3 -19 -10 -52 -15
-72 l-10 -38 -67 0 c-143 0 -237 -44 -304 -141 -42 -62 -121 -210 -115 -216 2
-2 17 1 32 7 21 8 31 8 39 -1 8 -9 7 -10 -3 -4 -11 6 -13 4 -8 -9 4 -9 3 -15
-2 -12 -9 6 -25 -23 -18 -31 2 -2 17 2 33 8 16 7 31 13 34 14 31 8 56 20 62
29 5 8 8 7 8 -2 0 -8 5 -10 13 -5 6 4 18 9 24 10 7 2 21 5 30 7 10 3 26 5 36
5 12 1 16 5 11 14 -6 9 -4 9 8 -1 9 -7 19 -9 22 -4 3 5 20 8 38 7 18 -2 36 2
40 8 6 9 8 8 8 -1 0 -7 5 -10 10 -7 12 8 12 0 1 -45 -6 -19 -12 -48 -15 -65
-2 -16 -57 -291 -120 -610 -64 -319 -119 -592 -121 -608 -3 -15 -12 -59 -20
-98 -24 -113 -55 -290 -61 -344 -4 -44 -1 -56 28 -102 25 -41 41 -55 68 -62
56 -15 190 -2 218 21 13 11 14 11 8 0 -7 -11 -4 -12 11 -3 11 6 23 7 27 4 3
-3 6 -2 6 4 0 6 15 14 33 18 41 10 35 8 90 33 46 22 57 35 37 47 -6 4 -8 10
-5 15 3 5 1 11 -4 15 -6 3 -8 12 -4 20 3 9 0 22 -6 29 -9 10 -9 16 -1 21 8 5
7 11 -1 22 -8 9 -9 17 -3 21 6 4 11 16 12 27 3 34 8 54 15 61 3 4 2 16 -4 27
-6 11 -7 17 -1 13 5 -3 12 13 16 37 4 23 9 56 12 72 3 17 6 40 7 53 1 12 4 22
7 22 11 0 9 44 -2 57 -8 11 -7 12 6 7 9 -4 16 -3 15 2 -1 5 -1 11 1 14 1 3 3
19 5 35 10 74 30 161 40 167 7 5 6 8 -2 8 -8 0 -9 9 -1 32 26 84 27 88 15 81
-8 -5 -8 -2 0 8 10 12 10 18 0 29 -9 10 -9 11 1 6 6 -4 13 -4 13 1 4 26 8 51
10 76 2 15 7 27 12 27 5 0 7 6 4 13 -2 6 0 20 5 31 8 14 7 17 -3 11 -8 -6 -10
-4 -3 6 10 17 15 36 17 67 0 12 4 22 7 22 4 0 7 7 7 15 0 8 -5 15 -11 15 -6 0
-4 5 4 10 8 5 16 22 16 37 1 15 3 28 4 28 1 0 3 7 5 15 2 8 7 26 10 40 4 14 8
39 10 55 1 17 4 30 5 30 1 0 3 15 5 33 2 19 6 36 9 40 3 3 0 12 -7 20 -8 11
-8 14 0 9 16 -10 30 41 36 136 1 15 5 27 8 27 10 0 7 34 -4 48 -7 9 -6 11 4 7
14 -5 18 11 22 73 0 12 11 16 36 13 7 -2 10 2 6 9 -5 9 -2 9 11 3 23 -11 224
-10 242 1 7 4 12 2 12 -6 0 -9 3 -9 10 2 5 8 10 10 10 4 0 -11 51 -11 69 1 6
3 11 2 11 -4 0 -10 19 -9 38 2 6 5 12 5 12 0 0 -6 147 -9 158 -3 2 2 64 6 123
8 26 1 38 6 33 13 -5 8 -1 8 13 0 11 -6 23 -7 27 -4 3 3 21 8 38 9 40 4 54 7
93 23 68 27 83 36 79 43 -3 4 -1 8 4 8 14 0 52 36 45 44 -3 3 1 6 10 6 10 0
17 7 17 15 0 8 4 15 8 15 9 0 44 56 42 66 -1 4 2 10 7 13 16 10 57 101 49 108
-4 4 -10 3 -14 -2 -4 -6 -15 -11 -24 -13 -16 -2 -16 0 -3 25 26 50 19 52 -74
23 -80 -25 -190 -48 -321 -65 -25 -4 -188 -9 -363 -12 -324 -6 -356 -3 -329
30 9 10 8 17 -1 27 -9 10 -9 11 1 6 6 -4 12 -3 12 1 0 5 -6 15 -12 22 -11 10
-9 11 6 5 15 -6 18 -4 13 9 -3 9 -2 19 4 23 6 4 5 12 -3 22 -10 12 -10 14 0 8
8 -5 12 2 13 23 2 39 3 44 11 57 4 6 8 28 9 50 1 21 7 45 12 51 5 7 7 20 3 28
-3 8 -2 15 2 15 4 0 8 8 8 18 1 9 4 31 7 47 26 125 34 173 32 192 -1 12 2 20
6 17 14 -8 11 10 -3 25 -11 10 -10 12 1 9 19 -4 26 49 9 70 -12 15 -11 16 5 3
15 -12 17 -11 18 5 2 43 12 96 29 164 5 19 11 51 14 70 10 59 16 93 26 129 5
19 7 38 4 42 -2 4 0 10 6 14 6 4 8 10 5 15 -6 10 15 8 33 -3 7 -5 12 -3 12 4
0 8 4 9 13 0 10 -8 17 -7 25 1 7 7 12 8 12 2 0 -12 143 -12 152 1 5 7 8 6 8
-1 0 -11 51 -11 69 1 6 3 11 3 11 -2 0 -10 52 -9 68 1 7 4 12 3 12 -1 0 -10
53 -9 69 2 6 3 11 3 11 -2 0 -4 27 -8 59 -8 33 0 57 4 54 8 -3 5 5 4 17 -3 21
-11 22 -10 16 6 -5 16 -4 17 6 4 14 -16 94 -20 116 -6 7 4 12 3 12 -2 0 -12
63 -9 72 3 5 6 8 6 8 -1 0 -15 66 -10 86 7 12 10 15 10 12 -2 -2 -9 4 -13 17
-10 11 2 29 4 40 5 11 0 26 8 33 16 10 11 11 11 6 1 -6 -11 -1 -12 22 -6 16 4
43 9 59 12 17 2 37 7 45 10 19 8 27 10 41 12 5 0 7 5 4 11 -3 6 1 7 9 4 10 -4
16 -1 16 7 0 7 3 9 7 6 7 -8 64 26 100 59 23 21 24 26 12 41 -13 17 -12 17 4
4 16 -13 20 -13 27 -1 5 8 6 19 3 25 -4 5 -3 7 2 3 9 -9 45 28 71 72 10 16 22
30 26 30 4 0 5 9 3 19 -3 15 1 18 13 14 9 -3 14 -3 10 2 -4 4 -3 15 4 22 10
12 6 14 -27 7 l-38 -7 21 31 c12 16 22 33 22 36 0 7 -25 8 -31 1z m-135 -273
c3 -5 -1 -9 -9 -9 -8 0 -12 4 -9 9 3 4 7 8 9 8 2 0 6 -4 9 -8z m-930 -120 c3
-5 -1 -9 -9 -9 -8 0 -12 4 -9 9 3 4 7 8 9 8 2 0 6 -4 9 -8z m-1123 -35 c-10
-9 -11 -8 -5 6 3 10 9 15 12 12 3 -3 0 -11 -7 -18z m-431 -163 c0 -8 -19 -13
-24 -6 -3 5 1 9 9 9 8 0 15 -2 15 -3z m1805 -1284 c-3 -5 -12 -10 -18 -10 -7
0 -6 4 3 10 19 12 23 12 15 0z m-870 -59 c3 -5 2 -12 -3 -15 -5 -3 -9 1 -9 9
0 17 3 19 12 6z m400 -9 c-3 -3 -11 0 -18 7 -9 10 -8 11 6 5 10 -3 15 -9 12
-12z m80 8 c3 -5 1 -10 -4 -10 -6 0 -11 5 -11 10 0 6 2 10 4 10 3 0 8 -4 11
-10z m-1250 -20 c3 -6 -1 -7 -9 -4 -18 7 -21 14 -7 14 6 0 13 -4 16 -10z
m-112 -35 c-7 -21 -12 -19 -10 4 0 11 5 18 9 15 4 -3 5 -11 1 -19z"/>
</g>
</svg>
